<?xml version="1.0" encoding="utf-8"?>
<!-- Generator: Adobe Illustrator 16.0.0, SVG Export Plug-In . SVG Version: 6.00 Build 0)  -->
<!DOCTYPE svg PUBLIC "-//W3C//DTD SVG 1.1//EN" "http://www.w3.org/Graphics/SVG/1.1/DTD/svg11.dtd">
<svg version="1.1" id="Layer_1" xmlns="http://www.w3.org/2000/svg" xmlns:xlink="http://www.w3.org/1999/xlink" x="0px" y="0px"
	 width="284.5px" height="80px" viewBox="0 0 284.5 80" enable-background="new 0 0 284.5 80" xml:space="preserve">
<g>
	<g>
		<path fill="#343433" d="M49.5,27.4c0.3-1.4,1.1-1.7,1.8-1.7c1.3,0,1.6,0.8,2.3,2.9l1.3,4.1h0l1.3-4.1c0.7-2.1,1-2.9,2.3-2.9
			c0.7,0,1.5,0.3,1.8,1.7l1.1,6.1c0.2,1.2,0.4,2.6,0.4,3c0,0.6-0.5,1.3-1.3,1.3c-1.2,0-1.4-0.9-1.6-1.8l-0.8-5.3h0l-1.8,5.8
			c-0.3,0.9-0.7,1.2-1.5,1.2c-0.8,0-1.2-0.4-1.5-1.2l-1.8-5.8h0L50.8,36c-0.1,0.9-0.4,1.8-1.6,1.8c-0.8,0-1.3-0.7-1.3-1.3
			c0-0.4,0.2-1.7,0.5-3L49.5,27.4z"/>
		<path fill="#343433" d="M65.4,32.9c0,1.6,1.1,2.4,2.4,2.4c1.3,0,2.5-0.8,2.5-2.4v-5.8c0-1,0.6-1.4,1.3-1.4c0.8,0,1.4,0.5,1.4,1.4
			v5.8c0,3.1-2.1,5-5.1,5c-3,0-5.1-1.9-5.1-5v-5.8c0-1,0.6-1.4,1.3-1.4c0.8,0,1.4,0.5,1.4,1.4V32.9z"/>
		<path fill="#343433" d="M74.2,27.2c0-1,0.6-1.4,1.4-1.4c0.7,0,1,0.3,1.9,1.4l4.5,5.6h0v-5.6c0-1,0.6-1.4,1.3-1.4
			c0.8,0,1.3,0.5,1.3,1.4v9.2c0,0.9-0.6,1.4-1.3,1.4c-0.7,0-1-0.3-1.9-1.5l-4.5-5.6h0v5.6c0,0.9-0.6,1.4-1.3,1.4
			c-0.8,0-1.4-0.5-1.4-1.4V27.2z"/>
		<path fill="#343433" d="M88.6,36.4c0,0.9-0.6,1.4-1.3,1.4c-0.8,0-1.3-0.5-1.3-1.4v-9.2c0-1,0.6-1.4,1.3-1.4c0.8,0,1.3,0.5,1.3,1.4
			V36.4z"/>
		<path fill="#343433" d="M95.5,25.6c1.6,0,3.6,0.5,3.6,1.9c0,0.6-0.5,1.3-1.2,1.3c-0.6,0-1.3-0.6-2.4-0.6c-2.2,0-3,1.8-3,3.6
			c0,1.9,1,3.5,2.8,3.5c1.7,0,1.9-0.6,2.6-0.6c1.1,0,1.2,0.9,1.2,1.3c0,1.5-2.2,2-3.7,2c-3.7,0-5.8-2.8-5.8-6.2
			C89.6,28.2,91.9,25.6,95.5,25.6z"/>
		<path fill="#343433" d="M102.5,36.4c0,0.9-0.6,1.4-1.3,1.4c-0.8,0-1.3-0.5-1.3-1.4v-9.2c0-1,0.6-1.4,1.3-1.4
			c0.8,0,1.3,0.5,1.3,1.4V36.4z"/>
		<path fill="#343433" d="M103.8,27.2c0-0.9,0.7-1.3,1.4-1.3h3.3c2.1,0,4.1,1.3,4.1,4c0,2.3-1.4,4-4,4h-2v2.5c0,0.9-0.6,1.4-1.4,1.4
			c-0.8,0-1.4-0.5-1.4-1.4V27.2z M106.5,31.5h1.4c1.2,0,1.8-0.8,1.8-1.6c0-1.1-0.7-1.6-1.8-1.6h-1.4V31.5z"/>
		<path fill="#343433" d="M116,36.4c0,0.9-0.6,1.4-1.4,1.4c-0.8,0-1.3-0.5-1.3-1.4v-9.2c0-1,0.6-1.4,1.3-1.4c0.8,0,1.4,0.5,1.4,1.4
			V36.4z"/>
		<path fill="#343433" d="M128.7,31.8c0,3.8-2.3,6.2-5.8,6.2c-3.5,0-5.8-2.4-5.8-6.2c0-3.8,2.3-6.2,5.8-6.2
			C126.4,25.6,128.7,28,128.7,31.8z M119.9,31.8c0,1.9,0.9,3.7,2.9,3.7c2.1,0,2.9-1.8,2.9-3.7c0-1.9-0.9-3.7-2.9-3.7
			C120.8,28.1,119.9,29.9,119.9,31.8z"/>
		<path fill="#343433" d="M47.9,42.8c0-0.9,0.7-1.4,1.4-1.4h3.4c3.7,0,5.8,2.9,5.8,6.1c0,4.1-2.7,6.3-5.8,6.3h-3.4
			c-0.7,0-1.4-0.5-1.4-1.4V42.8z M50.8,51.2h1.5c2.2,0,3.2-1.5,3.2-3.7c0-2.1-1.1-3.5-3.1-3.5h-1.6V51.2z"/>
		<path fill="#343433" d="M59.8,42.8c0-0.9,0.7-1.4,1.4-1.4h4.3c0.9,0,1.4,0.5,1.4,1.3c0,0.8-0.5,1.3-1.4,1.3h-2.9v2.3h2.7
			c0.9,0,1.4,0.5,1.4,1.3c0,0.8-0.5,1.3-1.4,1.3h-2.7v2.3h3c0.9,0,1.4,0.5,1.4,1.3c0,0.8-0.5,1.3-1.4,1.3h-4.4
			c-0.7,0-1.4-0.5-1.4-1.4V42.8z"/>
		<path fill="#343433" d="M73.3,42.8c0-1,0.6-1.5,1.4-1.5s1.4,0.5,1.4,1.5v8.4h3c0.9,0,1.4,0.5,1.4,1.3c0,0.8-0.5,1.3-1.4,1.3h-4.5
			c-0.7,0-1.4-0.5-1.4-1.4V42.8z"/>
		<path fill="#343433" d="M93.2,47.6c0,4-2.4,6.5-6.1,6.5c-3.7,0-6.1-2.5-6.1-6.5c0-3.9,2.4-6.5,6.1-6.5
			C90.8,41.1,93.2,43.7,93.2,47.6z M84,47.6c0,2,0.9,3.9,3.1,3.9c2.2,0,3.1-1.9,3.1-3.9s-0.9-3.9-3.1-3.9C84.9,43.7,84,45.6,84,47.6
			z"/>
		<path fill="#343433" d="M94.8,42.8c0-0.9,0.7-1.4,1.4-1.4h3.3c2.1,0,3.5,1.3,3.5,3.2c0,1.3-0.9,2-1.5,2.4c1.5,0.3,2.5,1.5,2.5,3.1
			c0,2-1.3,3.8-4.3,3.8h-3.5c-0.7,0-1.4-0.5-1.4-1.4V42.8z M97.6,46.2h1.3c0.8,0,1.3-0.4,1.3-1.2s-0.5-1.2-1.3-1.2h-1.3V46.2z
			 M97.6,51.3h1.8c0.9,0,1.7-0.3,1.7-1.3c0-0.9-0.9-1.3-1.7-1.3h-1.8V51.3z"/>
		<path fill="#343433" d="M117.6,47.6c0,4-2.4,6.5-6.1,6.5c-3.7,0-6.1-2.5-6.1-6.5c0-3.9,2.4-6.5,6.1-6.5
			C115.2,41.1,117.6,43.7,117.6,47.6z M108.4,47.6c0,2,0.9,3.9,3.1,3.9c2.2,0,3.1-1.9,3.1-3.9s-0.9-3.9-3.1-3.9
			C109.3,43.7,108.4,45.6,108.4,47.6z"/>
		<path fill="#343433" d="M119.9,50.6c0.7,0,1.6,0.7,3.1,0.7c1.1,0,1.5-0.6,1.5-1.2c0-0.9-1.1-1.1-2.7-1.7c-1.5-0.5-3-1.1-3-3.4
			c0-2.7,2.1-4,4.5-4c2.3,0,3.5,0.8,3.5,1.9c0,0.8-0.5,1.3-1.3,1.3c-0.9,0-1.2-0.5-2.4-0.5c-0.8,0-1.3,0.4-1.3,1
			c0,0.7,0.7,0.8,2.7,1.5c1.5,0.5,3,1.3,3,3.7c0,2.9-2.1,4.2-4.8,4.2c-1.7,0-4.2-0.6-4.2-2C118.6,51.3,119,50.6,119.9,50.6z"/>
		<g>
			<path fill="#EE3939" d="M40.1,5.4l-0.5,0l0.7,7.5c0.2,0,0.3,0,0.5,0L40.1,5.4z"/>
			<path fill="#EE3939" d="M37.1,5.7l-0.5,0.1l1.3,7.4c0.2,0,0.3-0.1,0.5-0.1L37.1,5.7z"/>
			<path fill="#EE3939" d="M34,6.4l-0.5,0.1l2,7.3c0.2,0,0.3-0.1,0.5-0.1L34,6.4z"/>
			<path fill="#EE3939" d="M28.4,8.4l-0.4,0.2l3.2,6.8c0.1-0.1,0.3-0.1,0.4-0.2L28.4,8.4z"/>
			<path fill="#EE3939" d="M25.7,9.8L25.3,10l3.8,6.5c0.1-0.1,0.3-0.2,0.4-0.3L25.7,9.8z"/>
			<path fill="#EE3939" d="M23.1,11.4l-0.4,0.3l4.4,6.2c0.1-0.1,0.3-0.2,0.4-0.3L23.1,11.4z"/>
			<path fill="#EE3939" d="M18.5,15.3l-0.3,0.4l5.4,5.4c0.1-0.1,0.2-0.2,0.3-0.3L18.5,15.3z"/>
			<path fill="#EE3939" d="M16.3,17.6L16,18l5.9,4.9c0.1-0.1,0.2-0.3,0.3-0.4L16.3,17.6z"/>
			<path fill="#EE3939" d="M14.5,19.9l-0.3,0.4l6.3,4.3c0.1-0.1,0.2-0.3,0.3-0.4L14.5,19.9z"/>
			<path fill="#EE3939" d="M11.4,25.2l-0.2,0.4l6.9,3.2c0.1-0.1,0.1-0.3,0.2-0.4L11.4,25.2z"/>
			<path fill="#EE3939" d="M10.2,28l-0.2,0.5l7.2,2.6c0.1-0.2,0.1-0.3,0.2-0.5L10.2,28z"/>
			<path fill="#EE3939" d="M9.3,30.9l-0.1,0.5l7.4,1.9c0-0.2,0.1-0.3,0.1-0.5L9.3,30.9z"/>
			<path fill="#EE3939" d="M8.2,36.8l0,0.5l7.6,0.6c0-0.2,0-0.3,0-0.5L8.2,36.8z"/>
			<path fill="#EE3939" d="M15.7,39.8l-7.6,0v0.5l7.6,0c0-0.1,0-0.1,0-0.2C15.7,40,15.7,39.9,15.7,39.8z"/>
			<path fill="#EE3939" d="M8.2,42.9l0,0.5l7.6-0.7c0-0.2,0-0.3,0-0.5L8.2,42.9z"/>
			<path fill="#EE3939" d="M9.2,49l0.1,0.5l7.4-2c0-0.2-0.1-0.3-0.1-0.5L9.2,49z"/>
			<path fill="#EE3939" d="M10.1,51.8l0.2,0.5l7.2-2.6c-0.1-0.2-0.1-0.3-0.2-0.5L10.1,51.8z"/>
			<path fill="#EE3939" d="M11.3,54.6l0.2,0.4l6.9-3.2c-0.1-0.1-0.1-0.3-0.2-0.4L11.3,54.6z"/>
			<path fill="#EE3939" d="M14.3,59.9l0.3,0.4l6.2-4.4c-0.1-0.1-0.2-0.3-0.3-0.4L14.3,59.9z"/>
			<path fill="#EE3939" d="M16.1,62.3l0.3,0.4l5.8-4.9c-0.1-0.1-0.2-0.2-0.3-0.4L16.1,62.3z"/>
			<path fill="#EE3939" d="M18.2,64.6l0.4,0.3l5.3-5.4c-0.1-0.1-0.2-0.2-0.3-0.3L18.2,64.6z"/>
			<path fill="#EE3939" d="M22.8,68.5l0.4,0.3l4.3-6.2c-0.1-0.1-0.3-0.2-0.4-0.3L22.8,68.5z"/>
			<path fill="#EE3939" d="M25.4,70.2l0.4,0.2l3.7-6.6c-0.1-0.1-0.3-0.2-0.4-0.2L25.4,70.2z"/>
			<path fill="#EE3939" d="M28.1,71.6l0.4,0.2l3.2-6.9c-0.1-0.1-0.3-0.1-0.4-0.2L28.1,71.6z"/>
			<path fill="#EE3939" d="M33.7,73.7l0.5,0.1l1.9-7.3c-0.2,0-0.3-0.1-0.5-0.1L33.7,73.7z"/>
			<path fill="#EE3939" d="M36.7,74.3l0.5,0.1l1.3-7.4c-0.2,0-0.3-0.1-0.5-0.1L36.7,74.3z"/>
			<path fill="#EE3939" d="M39.6,74.7l0.5,0l0.7-7.5c-0.2,0-0.3,0-0.5,0L39.6,74.7z"/>
			<path fill="#EE3939" d="M31.1,7.3l2,7.3c0.4-0.1,0.7-0.3,1.1-0.4L31.1,7.3z"/>
			<path fill="#EE3939" d="M42.9,5.1l-0.5,7.6c0.4,0,0.1,0,0.5,0L42.9,5.1z"/>
			<path fill="#EE3939" d="M42.9,74.9l0-7.5c-0.4,0-0.3,0-0.6,0L42.9,74.9z"/>
			<path fill="#EE3939" d="M20.5,13.5l4.4,6.2c0.3-0.3,0.6-0.5,0.9-0.7L20.5,13.5z"/>
			<path fill="#EE3939" d="M12.7,22.7L19,27c0.2-0.3,0.4-0.7,0.6-1L12.7,22.7z"/>
			<path fill="#EE3939" d="M8.6,34.1L16,36c0.1-0.4,0.1-0.8,0.2-1.1L8.6,34.1z"/>
			<path fill="#EE3939" d="M8.6,46.2l7.6-0.7c-0.1-0.4-0.1-0.8-0.2-1.1L8.6,46.2z"/>
			<path fill="#EE3939" d="M12.8,57.6l6.9-3.3c-0.2-0.3-0.4-0.7-0.6-1L12.8,57.6z"/>
			<path fill="#EE3939" d="M20.6,66.8l5.3-5.4c-0.3-0.2-0.6-0.5-0.9-0.7L20.6,66.8z"/>
			<path fill="#EE3939" d="M31,72.8l3.1-6.9c-0.4-0.1-0.7-0.3-1.1-0.4L31,72.8z"/>
			<path fill="#EE3939" d="M39.3,25.4c0-0.5-0.1-1.2-0.5-1.6c-0.7-0.7-0.6-1.9-0.1-2.4c1.1-1.1,0-2.2,0-2.4c0.5-0.1,1.5,0.3,1.5,1.5
				c-0.2,0.8-0.1,1.8,0.6,2.3c0.7,0.5,0.7,1.5,0.6,2.2c0,0,0.1,0,0.1,0l1-12.2c-0.5,0-1.1,0-1.6,0.1l0.3,3.3l-0.5,0l-0.3-3.2
				c-0.6,0.1-1.3,0.2-1.9,0.3l0.6,3.2l-0.5,0.1l-0.6-3.2c-0.6,0.1-1.3,0.3-1.9,0.4l0.9,3.1l-0.5,0.1l-0.9-3.1
				c-0.5,0.1-0.9,0.3-1.4,0.4l5,11.1C39.2,25.3,39.2,25.4,39.3,25.4z"/>
			<path fill="#EE3939" d="M30.6,31.3c-0.3-0.5-0.8-1.1-1.7-1.2c-1-0.1-1.7-1-1.6-1.8c0.1-1.5-1.4-1.7-1.6-1.8
				c0.3-0.4,1.4-0.7,2,0.2c0.4,0.7,1.1,1.4,1.9,1.4c1.1,0,1.8,1,2.2,1.7c0,0,0.1-0.1,0.1-0.1l-7.1-9.9c-0.4,0.3-0.7,0.7-1.1,1
				l2.2,2.2l-0.3,0.3L23.5,21c-0.5,0.5-0.9,1-1.4,1.5l2.4,2l-0.3,0.4l-2.4-2c-0.4,0.5-0.7,0.9-1.1,1.4l2.6,1.8l-0.3,0.4l-2.6-1.8
				c-0.3,0.4-0.6,0.9-0.9,1.3L30.6,31.3C30.6,31.3,30.6,31.3,30.6,31.3z"/>
			<path fill="#EE3939" d="M34.4,27.5c-0.1-0.5-0.4-1.2-1.1-1.5c-0.9-0.4-1.3-1.6-0.9-2.3c0.6-1.4-0.8-2.1-0.9-2.2
				c0.4-0.2,1.6-0.2,1.9,0.9c0.1,0.8,0.6,1.7,1.3,2c0.9,0.3,1.3,1.4,1.4,2.1c0.1,0,0.1-0.1,0.2-0.1l-3.2-11.8
				c-0.5,0.2-1,0.4-1.5,0.6l1.4,2.9l-0.4,0.2l-1.4-2.9c-0.6,0.3-1.1,0.6-1.7,0.9l1.6,2.8l-0.4,0.2l-1.6-2.8c-0.5,0.3-1.1,0.7-1.6,1
				l1.8,2.6l-0.4,0.3l-1.8-2.6c-0.4,0.3-0.9,0.7-1.3,1L34.4,27.5C34.3,27.6,34.3,27.6,34.4,27.5z"/>
			<path fill="#EE3939" d="M32,50.6c-0.5,0.2-1.3,0.7-1.4,1.5c-0.2,1-1.2,1.6-2,1.4c-1.5-0.3-1.9,1.2-2,1.3c-0.3-0.4-0.6-1.5,0.4-2
				c0.8-0.3,1.5-0.9,1.6-1.7c0.1-1.1,1.4-1.8,2.1-2c0,0-0.1-0.1-0.1-0.1l-11,5.3c0.3,0.4,0.5,0.8,0.8,1.3l2.6-1.8l0.3,0.4l-2.6,1.8
				c0.4,0.5,0.7,1,1.1,1.5l2.4-2l0.3,0.4l-2.4,2c0.4,0.5,0.8,1,1.3,1.4l2.2-2.2l0.3,0.3l-2.2,2.3c0.4,0.4,0.8,0.7,1.1,1.1L32,50.6
				C32.1,50.7,32.1,50.6,32,50.6z"/>
			<path fill="#EE3939" d="M29.1,46.2c-0.5,0-1.5,0.1-2,0.9c-0.5,0.9-1.7,1-2.4,0.6c-1.3-0.8-2.2,0.5-2.3,0.5
				c-0.2-0.4,0-1.6,1.1-1.7c0.8,0,1.8-0.3,2.1-1c0.5-1,2.1-1.2,2.7-1.1c0,0,0-0.1,0-0.1l-12.1,1.2c0.1,0.5,0.2,1,0.4,1.5l3-0.8
				l0.1,0.5l-3,0.8c0.2,0.6,0.3,1.2,0.5,1.7l2.9-1.1l0.2,0.5l-3,1.1c0.2,0.6,0.5,1.2,0.7,1.7L21,50l0.2,0.4l-2.8,1.3
				c0.2,0.5,0.5,1,0.7,1.4l10.1-6.9C29.1,46.3,29.1,46.3,29.1,46.2z"/>
			<path fill="#EE3939" d="M27.8,41.2c-0.5-0.2-1.5-0.5-2.2,0.1c-0.8,0.6-2,0.4-2.4-0.3c-0.9-1.2-2.2-0.3-2.4-0.3
				c0-0.5,0.6-1.5,1.7-1.2c0.8,0.3,1.8,0.3,2.4-0.2c0.9-0.8,2.4-0.3,3-0.1c0-0.1,0-0.1,0-0.2L16,36c-0.1,0.5-0.1,1-0.2,1.5l3.1,0.3
				l0,0.5l-3.1-0.3c0,0.6-0.1,1.2-0.1,1.8l3.1,0l0,0.5h-3.1c0,0.7,0,1.3,0.1,1.9l3.1-0.3l0,0.5l-3.1,0.3c0,0.5,0.1,1.1,0.2,1.6
				L27.8,41.2C27.8,41.2,27.8,41.2,27.8,41.2z"/>
			<path fill="#EE3939" d="M36.2,53.7c-0.4,0.4-0.8,1-0.7,1.8c0.2,1-0.6,1.9-1.4,2c-1.5,0.3-1.3,1.8-1.4,1.9c-0.4-0.2-1-1.2-0.3-2
				c0.6-0.5,1.1-1.4,0.9-2.2c-0.3-1,0.6-2,1.1-2.5c0,0-0.1-0.1-0.1-0.1l-8.5,8.7c0.4,0.3,0.8,0.6,1.2,0.9l1.8-2.6l0.4,0.3l-1.8,2.6
				c0.5,0.4,1,0.7,1.6,1l1.6-2.8l0.4,0.2l-1.6,2.8c0.5,0.3,1.1,0.6,1.7,0.9l1.3-2.9L33,62l-1.3,2.9c0.5,0.2,0.9,0.4,1.4,0.6
				l3.3-11.7C36.3,53.8,36.3,53.7,36.2,53.7z"/>
			<path fill="#EE3939" d="M42.3,67.3l-0.7-12.1c-0.1,0-0.2,0-0.2,0c-0.2,0.5-0.2,1.1,0.1,1.7c0.5,0.9,0.1,2-0.6,2.4
				c-1.3,0.8-0.6,2.1-0.6,2.3c-0.5-0.1-1.4-0.7-1-1.8c0.4-0.7,0.5-1.7,0.1-2.4c-0.5-0.8-0.2-1.8,0.1-2.5c-0.1,0-0.1,0-0.2,0l-5,11.1
				c0.5,0.2,1,0.3,1.5,0.5l0.8-3.1l0.5,0.1l-0.8,3.1c0.6,0.2,1.2,0.3,1.8,0.4l0.6-3.2l0.5,0.1L38.4,67c0.6,0.1,1.2,0.2,1.8,0.2
				l0.3-3.2l0.5,0l-0.3,3.2C41.3,67.3,41.7,67.3,42.3,67.3z"/>
			<path fill="#EE3939" d="M28.4,36c-0.4-0.4-1.2-0.9-2.1-0.6c-1,0.3-2-0.4-2.2-1.1c-0.5-1.5-1.9-1.1-2.1-1.1c0.2-0.4,1-1.2,2-0.6
				c0.6,0.5,1.5,0.9,2.3,0.6c1.1-0.4,2.3,0.4,2.7,0.9c0,0,0-0.1,0.1-0.2L19,27c-0.2,0.5-0.5,0.9-0.7,1.4l2.9,1.3L21,30.2l-2.9-1.3
				c-0.3,0.6-0.5,1.1-0.7,1.7l3,1.1l-0.2,0.5l-3-1.1c-0.2,0.6-0.4,1.2-0.6,1.8l3,0.8l-0.1,0.5l-3-0.8c-0.1,0.5-0.2,1-0.3,1.6
				L28.4,36C28.3,36,28.4,36,28.4,36z"/>
			<path fill="#EE3939" d="M41.3,47.9c-0.2-0.1-0.3-0.2-0.5-0.3c-0.1-0.1-0.1-0.1-0.2,0c-0.1,0-0.2,0-0.3,0.1
				c-0.2,0-0.3-0.1-0.2-0.3c0.1-0.2,0.3-0.2,0.3-0.4c0.3-0.6,0.8-1.3,0.6-1.8c-0.4-1.1-0.1-2.2,0-3.2c0-0.2,0.3-0.4,0.5-0.5
				c0.1,0,0.1-0.1,0.2,0c0.2,0,0.3,0.2,0.4,0.3c0,0.1,0.7,0.6,0.8,0.7v-2.2c-0.1,0-0.7-0.6-0.8-0.7c-0.1-0.1-0.2-0.2-0.3-0.4
				c-0.1-0.2-0.3-0.5-0.5-0.7c-0.1-0.1-0.2-0.1-0.3-0.1c-0.2,0-0.4,0-0.4-0.2c-0.1-0.2-0.1-0.3-0.2-0.5c-0.1-0.3-0.3-0.6-0.6-0.9
				c-0.2-0.2-0.5-0.3-0.8-0.4c-0.1,0-0.1-0.2-0.1-0.2c0-0.1-0.1-0.1-0.2-0.1c-0.2,0-0.5,0-0.7,0c-0.2,0-0.4,0-0.5,0
				c-0.2,0-0.3-0.1-0.2-0.3c0.1-0.1,0.1-0.2,0.2-0.3c0,0,0.1-0.1,0-0.2c0-0.1-0.1-0.1-0.2-0.1c-0.5,0-1.1,0-1.6,0
				c-0.3,0-0.7,0-1.1,0c-0.1,0-0.3,0-0.4,0c-0.1-0.1-0.1-0.2,0-0.3c0.1-0.1,0.4-0.2,0.5-0.2c0.3-0.1,0.6-0.2,0.8-0.3
				c0.1,0,0.1-0.1,0.1-0.2c0,0-0.1,0-0.2-0.1C35.1,34,35,34,34.9,34c-0.2,0-0.4-0.1-0.6-0.1c-0.2-0.1-0.3-0.2-0.2-0.4
				c0.1-0.2,0.3-0.3,0.4-0.3c0.3-0.2,0.7-0.1,1-0.2c0.2,0,0.5,0,0.7-0.1c0.1,0,0.2-0.1,0.2-0.2c0-0.1-0.1-0.1-0.2-0.1
				c-0.1,0-0.3,0-0.4,0c-0.4,0-0.8-0.1-1.2-0.1c-0.1,0-0.4,0-0.4-0.1c0,0,0-0.2,0-0.2c0,0,0.1,0,0.1-0.1c0.2-0.1,0.3-0.1,0.5-0.2
				c0.2-0.1,0.4-0.1,0.5-0.2c0.1,0,0.6-0.1,0.5-0.3c0-0.1-0.1,0-0.2,0c-0.2,0-0.4,0-0.6,0c-0.2,0-0.5,0-0.7,0c-0.1,0-0.5,0-0.4-0.1
				c0-0.1,0.2-0.2,0.2-0.2c0.1-0.1,0.2-0.1,0.2-0.2c0.3-0.2,0.7-0.3,1.1-0.4c0.3,0,0.6-0.1,1-0.2c0.1,0,0.3-0.1,0.3-0.2
				c0-0.1-0.1-0.2-0.2-0.1c-0.2,0-0.3,0.1-0.5,0.1c-0.5,0.1-1,0.2-1.5,0.2c-0.2,0-0.5,0.1-0.7,0.1c-0.1,0-0.2,0.1-0.3,0
				c-0.1,0-0.1-0.1-0.1-0.2c0.1-0.1,0.1-0.1,0.2-0.2C33.9,30.1,34,30,34,30c0.3-0.3,0.5-0.5,0.8-0.8c0.2-0.2,0.5-0.4,0.8-0.4
				c0.2,0,0.3-0.1,0.5-0.1c0.1,0,0.2,0,0.4,0c0.1,0,0.3,0.1,0.2-0.1c0-0.1-0.1-0.1-0.2-0.1c-0.1,0-0.2,0-0.3,0c-0.2,0-0.4,0-0.6,0
				c-0.2,0-0.4,0.1-0.6,0.1c-0.1,0-0.4,0.2-0.4,0c0-0.1,0.1-0.2,0.2-0.2c0.1-0.1,0.1-0.2,0.2-0.2c0.3-0.3,0.6-0.5,1-0.6
				c0.5-0.2,1-0.3,1.5-0.3c0.2,0,0.4,0,0.5-0.1c0.1,0,0.2-0.1,0-0.2c-0.2-0.1-0.4-0.1-0.6-0.1c-0.2,0-0.4,0-0.5-0.1
				c-0.1,0-0.3,0-0.4,0c-0.1,0-0.2-0.2-0.1-0.2c0.5-0.1,1-0.3,1.4-0.5c0.2-0.1,0.4-0.1,0.7-0.2c0.1,0,0.3,0,0.4,0
				c0.1,0,0.2-0.2,0.3-0.3c0-0.1,0.2-0.2,0.1-0.3c-0.1,0-0.3,0-0.4,0c-0.2,0-0.4,0-0.5,0.1c-0.6,0.1-1.2,0.3-1.8,0.5c0,0,0,0-0.1,0
				c-5.4,2.4-9.1,7.8-9.1,14c0,7.3,5.2,13.5,12.1,15c0,0,0-0.2,0-0.2c0-0.2,0.1-0.3,0.3-0.3c0.2,0,0.3,0,0.5,0.1
				c0.2,0.1,0.5,0.3,0.7,0.3c0.2,0,0.4-0.1,0.6-0.2c0.1-0.1,0.2-0.3,0.3-0.5c0-0.1-0.2-0.4-0.3-0.4c-0.3-0.1-0.8-0.1-1.1-0.3
				c-0.2-0.1-0.4-0.5-0.2-0.7c0.1-0.1,0.2-0.2,0.4-0.2c0.3,0,0.6-0.1,0.9-0.1c0.2,0,0.4,0,0.5,0.1c0.1,0.1,0.2,0.3,0.2,0.5
				c0.1,0.4,0.1,2,0.1,2.1c0,0,0,0.1,0,0.1c0.1,0,0.7,0,0.8,0v-6.4C42.6,48.6,41.7,48.1,41.3,47.9z M37.5,38.6
				c-1.3-0.1-2.5-0.1-3.8-0.2C34.5,36.9,36.6,37,37.5,38.6z M34.9,39.3c0.9-0.2,2-0.4,2.9,0.7c-1.8,0.3-3.5,0.6-5.3,1
				C32.8,39.6,34,39.4,34.9,39.3z M39.2,47c-0.1,0.2-0.1,0.5-0.2,0.7c-0.1,0.4-0.3,0.9-0.5,1.3c-0.3,0.5-2.3,0.2-2.6-0.2
				c-0.1-0.1,0.1-0.4,0.1-0.5c0.3-0.6,0.5-1.2,0-1.7c-0.4-0.5-1-1-1.5-1.3c-0.2-0.1-0.4-0.2-0.6-0.4c-0.3-0.3-0.4-0.6-0.6-1
				c-0.1-0.2-0.2-0.4-0.3-0.5c0-0.1-0.1-0.2-0.1-0.2c0-0.1,0-0.2,0.1-0.3c0.1-0.1,0.2-0.1,0.3-0.1c0.3,0,0.5-0.1,0.8-0.1
				c0.2,0,0.5,0,0.7,0.2c1.1,0.8,1.2,0.8,2.2,0c0.2-0.2,0.6-0.4,0.8-0.1c0.1,0.2,0.1,0.4,0.1,0.6c0,0.1,0,0.5,0.1,0.6
				c0.3,0.1,0.6,0.4,0.7,0.7c0.1,0.3,0.2,0.6,0.2,0.9c0,0.2,0.1,0.5,0.2,0.7c0,0.1,0,0.1,0.1,0.2c0,0.1,0.1,0.1,0.1,0.2
				c0.1,0.1,0.1,0.2,0.1,0.3C39.3,46.9,39.3,46.9,39.2,47z M41.8,50.5c0,0.1-0.3,0.3-0.5,0.3c-0.4,0-0.7-0.1-1-0.1
				c-0.1,0-0.3,0-0.4-0.1c0-0.1,0.1-0.2,0.1-0.3c0.2-0.1,0.5-0.2,0.7-0.3c0.2-0.1,0.4-0.2,0.7-0.3c0.1,0,0.2,0,0.2,0
				c0.1,0.1,0.1,0.2,0.1,0.3C41.8,50.1,41.8,50.3,41.8,50.5z"/>
		</g>
	</g>
	<g>
		<path fill="#4D4D4D" d="M159.8,27.3c0,0.6-0.4,1.1-1,1.1c-0.6,0-1.1-0.5-2-0.5c-0.6,0-1.2,0.3-1.2,1c0,1.6,5,0.6,5,4.4
			c0,2.2-1.8,3.5-3.9,3.5c-1.2,0-3.7-0.3-3.7-1.7c0-0.6,0.4-1.1,1-1.1c0.7,0,1.6,0.6,2.5,0.6c1,0,1.5-0.6,1.5-1.3c0-1.8-5-0.7-5-4.2
			c0-2.1,1.7-3.4,3.7-3.4C157.7,25.8,159.8,26.1,159.8,27.3z"/>
		<path fill="#4D4D4D" d="M163.3,33.4c0.1,1.1,1,1.6,2,1.6c1.1,0,1.9-0.9,2.5-0.9c0.5,0,0.9,0.5,0.9,0.9c0,0.9-1.9,1.8-3.5,1.8
			c-2.4,0-4.1-1.8-4.1-4.2c0-2.2,1.6-4.2,3.9-4.2c2.4,0,3.9,2.1,3.9,4c0,0.6-0.3,1-1,1H163.3z M166.7,31.9c-0.1-0.9-0.7-1.7-1.7-1.7
			c-1,0-1.6,0.7-1.7,1.7H166.7z"/>
		<path fill="#4D4D4D" d="M175,30.9c-0.5,0-1-0.4-1.7-0.4c-1.2,0-1.8,1.1-1.8,2.2c0,1.1,0.6,2.2,1.8,2.2c0.5,0,1.4-0.5,1.6-0.5
			c0.5,0,0.9,0.4,0.9,0.9c0,1.1-1.9,1.5-2.7,1.5c-2.3,0-3.9-1.9-3.9-4.2c0-2.2,1.6-4.2,3.9-4.2c0.9,0,2.7,0.3,2.7,1.4
			C175.8,30.3,175.5,30.9,175,30.9z"/>
		<path fill="#4D4D4D" d="M178,34.5c0.6,0,1.2,0.5,1.2,1.2s-0.5,1.2-1.2,1.2c-0.6,0-1.2-0.5-1.2-1.2S177.3,34.5,178,34.5z"/>
		<path fill="#4D4D4D" d="M192.1,35.6c0,0.7-0.5,1.2-1.1,1.2c-0.6,0-0.9-0.3-1.1-0.9c-0.4,0.7-1.3,1-2,1c-2.2,0-3.6-2-3.6-4.1
			c0-2.1,1.2-4.3,3.5-4.3c0.8,0,1.5,0.3,2.1,0.8v-3c0-0.7,0.5-1.2,1.1-1.2c0.6,0,1.1,0.5,1.1,1.2V35.6z M188.2,30.5
			c-1.1,0-1.7,1.2-1.7,2.2c0,1,0.6,2.2,1.7,2.2c1.2,0,1.7-1.2,1.7-2.3C189.9,31.6,189.4,30.5,188.2,30.5z"/>
		<path fill="#4D4D4D" d="M195.1,33.4c0.1,1.1,1,1.6,2,1.6c1.1,0,1.9-0.9,2.5-0.9c0.5,0,0.9,0.5,0.9,0.9c0,0.9-1.9,1.8-3.5,1.8
			c-2.4,0-4.1-1.8-4.1-4.2c0-2.2,1.6-4.2,3.9-4.2c2.4,0,3.9,2.1,3.9,4c0,0.6-0.3,1-1,1H195.1z M198.5,31.9c-0.1-0.9-0.7-1.7-1.7-1.7
			c-1,0-1.6,0.7-1.7,1.7H198.5z"/>
		<path fill="#4D4D4D" d="M205.5,27c0-0.8,0.5-1.2,1.1-1.2c0.6,0,1.1,0.4,1.1,1.2v3.2h4.7V27c0-0.8,0.5-1.2,1.1-1.2s1.1,0.4,1.1,1.2
			v8.6c0,0.8-0.5,1.2-1.1,1.2s-1.1-0.4-1.1-1.2v-3.3h-4.7v3.3c0,0.8-0.5,1.2-1.1,1.2c-0.6,0-1.1-0.4-1.1-1.2V27z"/>
		<path fill="#4D4D4D" d="M223.5,35.4c0,0.6,0,1.4-1,1.4c-0.6,0-0.9-0.3-1-0.9c-0.6,0.7-1.2,1-2.1,1c-2,0-3.6-1.7-3.6-4.2
			c0-2.4,1.6-4.2,3.6-4.2c0.8,0,1.6,0.3,2.1,1c0.1-0.5,0.5-0.9,1-0.9c1,0,1,0.9,1,1.4V35.4z M219.7,34.9c1.1,0,1.7-1.1,1.7-2.2
			c0-1-0.5-2.2-1.7-2.2c-1.2,0-1.7,1.2-1.7,2.2C217.9,33.7,218.5,34.9,219.7,34.9z"/>
		<path fill="#4D4D4D" d="M230.1,30.9c-0.5,0-1-0.4-1.7-0.4c-1.2,0-1.8,1.1-1.8,2.2c0,1.1,0.6,2.2,1.8,2.2c0.5,0,1.4-0.5,1.6-0.5
			c0.5,0,0.9,0.4,0.9,0.9c0,1.1-1.9,1.5-2.7,1.5c-2.3,0-3.9-1.9-3.9-4.2c0-2.2,1.6-4.2,3.9-4.2c0.9,0,2.7,0.3,2.7,1.4
			C231,30.3,230.6,30.9,230.1,30.9z"/>
		<path fill="#4D4D4D" d="M234,26.5c0,0.7-0.5,1.3-1.2,1.3c-0.6,0-1.2-0.6-1.2-1.3c0-0.6,0.6-1.2,1.2-1.2
			C233.4,25.3,234,25.9,234,26.5z M231.7,29.8c0-0.7,0.5-1.2,1.1-1.2c0.6,0,1.1,0.5,1.1,1.2v5.8c0,0.7-0.5,1.2-1.1,1.2
			c-0.6,0-1.1-0.5-1.1-1.2V29.8z"/>
		<path fill="#4D4D4D" d="M236.8,33.4c0.2,1.1,1,1.6,2,1.6c1.1,0,1.9-0.9,2.5-0.9c0.5,0,0.9,0.5,0.9,0.9c0,0.9-1.9,1.8-3.5,1.8
			c-2.4,0-4.1-1.8-4.1-4.2c0-2.2,1.6-4.2,3.9-4.2c2.4,0,3.9,2.1,3.9,4c0,0.6-0.3,1-1,1H236.8z M240.2,31.9c-0.1-0.9-0.7-1.7-1.7-1.7
			c-1,0-1.6,0.7-1.7,1.7H240.2z"/>
		<path fill="#4D4D4D" d="M243.2,29.8c0-0.7,0.5-1.2,1.1-1.2c0.6,0,0.9,0.3,1,0.8c0.4-0.6,1.1-0.9,2.1-0.9c1.7,0,3,1.1,3,2.9v4.2
			c0,0.7-0.5,1.2-1.1,1.2c-0.6,0-1.1-0.5-1.1-1.2v-3.8c0-1-0.6-1.5-1.4-1.5c-0.9,0-1.4,0.6-1.4,1.5v3.8c0,0.7-0.5,1.2-1.1,1.2
			c-0.6,0-1.1-0.5-1.1-1.2V29.8z"/>
		<path fill="#4D4D4D" d="M259,35.6c0,0.7-0.5,1.2-1.1,1.2c-0.6,0-1-0.3-1.1-0.9c-0.4,0.7-1.3,1-2,1c-2.2,0-3.6-2-3.6-4.1
			c0-2.1,1.2-4.3,3.5-4.3c0.8,0,1.5,0.3,2.1,0.8v-3c0-0.7,0.5-1.2,1.1-1.2c0.6,0,1.1,0.5,1.1,1.2V35.6z M255.1,30.5
			c-1.1,0-1.7,1.2-1.7,2.2c0,1,0.6,2.2,1.7,2.2c1.2,0,1.7-1.2,1.7-2.3C256.8,31.6,256.2,30.5,255.1,30.5z"/>
		<path fill="#4D4D4D" d="M267.6,35.4c0,0.6,0,1.4-1,1.4c-0.6,0-0.9-0.3-1-0.9c-0.6,0.7-1.2,1-2.1,1c-2,0-3.6-1.7-3.6-4.2
			c0-2.4,1.6-4.2,3.6-4.2c0.8,0,1.6,0.3,2.1,1c0.1-0.5,0.5-0.9,1-0.9c1,0,1,0.9,1,1.4V35.4z M263.8,34.9c1.1,0,1.7-1.1,1.7-2.2
			c0-1-0.5-2.2-1.7-2.2c-1.2,0-1.7,1.2-1.7,2.2C262.1,33.7,262.6,34.9,263.8,34.9z"/>
		<path fill="#4D4D4D" d="M153.7,45.3c0-0.4,0.2-0.7,0.7-0.7h2.5c3,0,4.5,2.4,4.5,5.1c0,3.1-1.6,5.2-4.4,5.2h-2.7
			c-0.5,0-0.7-0.3-0.7-0.7V45.3z M155,53.7h1.8c2.4,0,3.3-2,3.3-4.1c0-2.1-0.9-4-3.4-4H155V53.7z"/>
		<path fill="#4D4D4D" d="M163.3,44.5c0.4,0,0.8,0.3,0.8,0.8c0,0.4-0.3,0.8-0.8,0.8c-0.4,0-0.8-0.3-0.8-0.8
			C162.5,44.9,162.9,44.5,163.3,44.5z M163.9,54.2c0,0.4-0.2,0.7-0.6,0.7c-0.4,0-0.6-0.3-0.6-0.7v-6.5c0-0.4,0.2-0.7,0.6-0.7
			c0.4,0,0.6,0.3,0.6,0.7V54.2z"/>
		<path fill="#4D4D4D" d="M165.6,47.8c0-0.4,0.2-0.7,0.6-0.7c0.4,0,0.6,0.3,0.6,0.7v0.6h0c0.3-0.6,1-1.3,1.7-1.3
			c0.4,0,0.7,0.3,0.7,0.6c0,0.4-0.3,0.6-0.8,0.7c-0.7,0.1-1.7,0.7-1.7,2.2v3.6c0,0.4-0.2,0.7-0.6,0.7c-0.4,0-0.6-0.3-0.6-0.7V47.8z"
			/>
		<path fill="#4D4D4D" d="M170.9,51.5c0,1.3,0.8,2.3,2.3,2.3c1.7,0,2.1-1,2.6-1c0.2,0,0.5,0.2,0.5,0.6c0,0.6-1.6,1.6-3.1,1.6
			c-2.4,0-3.5-1.9-3.5-3.9c0-2.1,1.3-3.9,3.4-3.9c2.1,0,3.3,1.9,3.3,3.7c0,0.4-0.2,0.7-0.7,0.7H170.9z M175.1,50.6
			c0-1.1-0.6-2.4-2-2.4c-1.6-0.1-2.1,1.2-2.2,2.4H175.1z"/>
		<path fill="#4D4D4D" d="M180.7,47.1c1.3,0,2.1,0.4,2.1,1c0,0.3-0.2,0.5-0.5,0.5c-0.5,0-0.7-0.4-1.5-0.4c-1.6,0-2.2,1.5-2.2,2.8
			s0.6,2.8,2.2,2.8c0.9,0,1.1-0.4,1.5-0.4c0.3,0,0.5,0.2,0.5,0.5c0,0.5-0.7,1-2,1c-2.3,0-3.4-1.9-3.4-3.9
			C177.3,49,178.4,47.1,180.7,47.1z"/>
		<path fill="#4D4D4D" d="M187.1,47.1c1.3,0,2.1,0.4,2.1,1c0,0.3-0.2,0.5-0.5,0.5c-0.5,0-0.7-0.4-1.5-0.4c-1.6,0-2.2,1.5-2.2,2.8
			s0.6,2.8,2.2,2.8c0.9,0,1.1-0.4,1.5-0.4c0.3,0,0.5,0.2,0.5,0.5c0,0.5-0.7,1-2,1c-2.3,0-3.4-1.9-3.4-3.9
			C183.6,49,184.8,47.1,187.1,47.1z"/>
		<path fill="#4D4D4D" d="M191,44.5c0.4,0,0.8,0.3,0.8,0.8c0,0.4-0.3,0.8-0.8,0.8c-0.4,0-0.8-0.3-0.8-0.8
			C190.2,44.9,190.5,44.5,191,44.5z M191.6,54.2c0,0.4-0.2,0.7-0.6,0.7c-0.4,0-0.6-0.3-0.6-0.7v-6.5c0-0.4,0.2-0.7,0.6-0.7
			c0.4,0,0.6,0.3,0.6,0.7V54.2z"/>
		<path fill="#4D4D4D" d="M196.3,47.1c2.2,0,3.4,1.9,3.4,3.9c0,2-1.2,3.9-3.4,3.9c-2.2,0-3.4-1.9-3.4-3.9
			C192.9,49,194.2,47.1,196.3,47.1z M196.3,53.8c1.6,0,2.1-1.5,2.1-2.8s-0.5-2.8-2.1-2.8s-2.1,1.5-2.1,2.8S194.8,53.8,196.3,53.8z
			 M195.7,46c-0.2,0.1-0.4,0.1-0.5,0.1c-0.4,0-0.5-0.4-0.5-0.6c0-0.2,0.1-0.4,0.5-0.5l1.7-0.7c0.2-0.1,0.4-0.1,0.5-0.1
			c0.4,0,0.5,0.4,0.5,0.6c0,0.2-0.1,0.4-0.5,0.5L195.7,46z"/>
		<path fill="#4D4D4D" d="M201,47.8c0-0.4,0.2-0.7,0.6-0.7c0.4,0,0.6,0.3,0.6,0.7v0.3l0,0c0.6-0.7,1.3-1,2.1-1
			c1.2,0,2.7,0.7,2.7,2.9v4.2c0,0.4-0.2,0.7-0.6,0.7c-0.4,0-0.6-0.3-0.6-0.7v-4.2c0-1.3-0.9-1.9-1.8-1.9c-0.8,0-1.8,0.5-1.8,1.9v4.2
			c0,0.4-0.2,0.7-0.6,0.7c-0.4,0-0.6-0.3-0.6-0.7V47.8z"/>
		<path fill="#4D4D4D" d="M217.3,53.9L217.3,53.9c-0.4,0.7-1.1,1-2.1,1c-2.1,0-3.3-1.9-3.3-3.9c0-2,1.2-3.9,3.3-3.9c1,0,1.7,0.6,2,1
			h0v-3.7c0-0.4,0.2-0.7,0.6-0.7c0.4,0,0.6,0.3,0.6,0.7v9.8c0,0.4-0.2,0.7-0.6,0.7c-0.4,0-0.6-0.3-0.6-0.7V53.9z M215.3,48.2
			c-1.5,0-2.1,1.5-2.1,2.8s0.5,2.8,2.1,2.8c1.6,0,2.1-1.5,2.1-2.8S216.9,48.2,215.3,48.2z"/>
		<path fill="#4D4D4D" d="M221.1,51.5c0,1.3,0.8,2.3,2.3,2.3c1.7,0,2.1-1,2.6-1c0.2,0,0.5,0.2,0.5,0.6c0,0.6-1.6,1.6-3.1,1.6
			c-2.4,0-3.5-1.9-3.5-3.9c0-2.1,1.3-3.9,3.4-3.9c2.1,0,3.3,1.9,3.3,3.7c0,0.4-0.2,0.7-0.7,0.7H221.1z M225.3,50.6
			c0-1.1-0.6-2.4-2-2.4c-1.6-0.1-2.1,1.2-2.2,2.4H225.3z"/>
		<path fill="#4D4D4D" d="M233.1,45.8h-1.9c-0.4,0-0.6-0.2-0.6-0.6s0.3-0.6,0.6-0.6h5.1c0.4,0,0.6,0.2,0.6,0.6s-0.3,0.6-0.6,0.6
			h-1.9v8.5c0,0.4-0.2,0.7-0.6,0.7c-0.4,0-0.6-0.3-0.6-0.7V45.8z"/>
		<path fill="#4D4D4D" d="M236.4,47.8c0-0.4,0.2-0.7,0.6-0.7s0.6,0.3,0.6,0.7v4c0,1.3,0.6,2,1.8,2s1.8-0.7,1.8-2v-4
			c0-0.4,0.2-0.7,0.6-0.7s0.6,0.3,0.6,0.7v4.1c0,2.2-1.5,3-3,3c-1.5,0-3-0.8-3-3V47.8z"/>
		<path fill="#4D4D4D" d="M244.1,47.8c0-0.4,0.2-0.7,0.6-0.7c0.4,0,0.6,0.3,0.6,0.7v0.6h0c0.3-0.6,1-1.3,1.7-1.3
			c0.4,0,0.7,0.3,0.7,0.6c0,0.4-0.3,0.6-0.8,0.7c-0.7,0.1-1.7,0.7-1.7,2.2v3.6c0,0.4-0.2,0.7-0.6,0.7c-0.4,0-0.6-0.3-0.6-0.7V47.8z"
			/>
		<path fill="#4D4D4D" d="M249.3,44.5c0.4,0,0.8,0.3,0.8,0.8c0,0.4-0.3,0.8-0.8,0.8c-0.4,0-0.8-0.3-0.8-0.8
			C248.5,44.9,248.9,44.5,249.3,44.5z M249.9,54.2c0,0.4-0.2,0.7-0.6,0.7c-0.4,0-0.6-0.3-0.6-0.7v-6.5c0-0.4,0.2-0.7,0.6-0.7
			c0.4,0,0.6,0.3,0.6,0.7V54.2z"/>
		<path fill="#4D4D4D" d="M254,47.1c1,0,2.5,0.6,2.5,1.3c0,0.3-0.2,0.5-0.6,0.5c-0.5,0-0.8-0.8-2-0.8c-0.7,0-1.3,0.3-1.3,1
			c0,1.3,4.1,1.2,4.1,3.4c0,1.6-1.4,2.4-2.8,2.4c-1.6,0-2.9-0.8-2.9-1.5c0-0.3,0.2-0.6,0.5-0.6c0.6,0,1,0.9,2.4,0.9
			c0.9,0,1.5-0.5,1.5-1c0-1.5-4.1-1.4-4.1-3.5C251.4,47.9,252.7,47.1,254,47.1z"/>
		<path fill="#4D4D4D" d="M262.5,50c0-1.1-0.6-1.8-1.6-1.8c-1,0-1.6,0.7-1.6,1.8v4.3c0,0.4-0.2,0.7-0.6,0.7s-0.6-0.3-0.6-0.7v-6.5
			c0-0.4,0.2-0.7,0.6-0.7s0.6,0.3,0.6,0.7V48l0,0c0.3-0.4,0.8-0.9,1.9-0.9c0.7,0,1.5,0.3,2.1,1.3c0.6-0.8,1.2-1.3,2.3-1.3
			c1.2,0,2.7,0.7,2.7,2.9v4.2c0,0.4-0.2,0.7-0.6,0.7c-0.4,0-0.6-0.3-0.6-0.7V50c0-1.1-0.6-1.8-1.6-1.8c-1,0-1.6,0.7-1.6,1.8v4.3
			c0,0.4-0.2,0.7-0.6,0.7c-0.4,0-0.6-0.3-0.6-0.7V50z"/>
		<path fill="#4D4D4D" d="M273,47.1c2.2,0,3.4,1.9,3.4,3.9c0,2-1.2,3.9-3.4,3.9s-3.4-1.9-3.4-3.9C269.6,49,270.8,47.1,273,47.1z
			 M273,53.8c1.6,0,2.1-1.5,2.1-2.8s-0.5-2.8-2.1-2.8c-1.5,0-2.1,1.5-2.1,2.8S271.4,53.8,273,53.8z"/>
	</g>
	
		<line fill="none" stroke="#4D4D4D" stroke-width="2" stroke-linecap="round" stroke-miterlimit="10" x1="139.5" y1="18" x2="139.5" y2="61"/>
</g>
</svg>
