<?xml version="1.0" encoding="utf-8"?>
<!-- Generator: Adobe Illustrator 20.1.0, SVG Export Plug-In . SVG Version: 6.00 Build 0)  -->
<svg version="1.1" id="Capa_1" xmlns="http://www.w3.org/2000/svg" xmlns:xlink="http://www.w3.org/1999/xlink" x="0px" y="0px"
	 viewBox="0 0 190 110" style="enable-background:new 0 0 190 110;" xml:space="preserve">
<style type="text/css">
	.st0{fill:#FFFFFF;}
</style>
<g>
	<path class="st0" d="M69.1,38.9c0.1-0.8,0.9-1.6,2.1-1.6c1,0,1.9,0.8,2.1,1.5l2.5,8.3h0l2.5-8.3c0.2-0.8,1-1.5,2.1-1.5
		c1.1,0,1.9,0.9,2.1,1.6l1.9,11.7c0,0.1,0,0.3,0,0.4c0,0.9-0.7,1.5-1.5,1.5c-1.1,0-1.5-0.5-1.6-1.5l-1.2-8.5h0l-2.5,8.8
		c-0.1,0.5-0.5,1.2-1.7,1.2c-1.1,0-1.5-0.7-1.7-1.2l-2.5-8.8h0l-1.2,8.5c-0.1,1-0.6,1.5-1.6,1.5c-0.8,0-1.5-0.6-1.5-1.5
		c0-0.1,0-0.2,0-0.4L69.1,38.9z"/>
	<path class="st0" d="M85.6,38.9c0-1,0.7-1.6,1.6-1.6c0.9,0,1.6,0.6,1.6,1.6v7.3c0,1.9,1.2,3.5,3.2,3.5c1.9,0,3.2-1.6,3.2-3.5v-7.3
		c0-1,0.7-1.6,1.6-1.6c0.9,0,1.6,0.6,1.6,1.6v7.5c0,3.5-2.9,6.2-6.3,6.2c-3.5,0-6.4-2.6-6.4-6.2V38.9z"/>
	<path class="st0" d="M100,38.9c0-1,0.7-1.6,1.6-1.6c0.4,0,1,0.3,1.3,0.7l6.6,8.9h0v-7.9c0-1,0.7-1.6,1.6-1.6c0.9,0,1.6,0.6,1.6,1.6
		v11.9c0,1-0.7,1.6-1.6,1.6c-0.4,0-1-0.3-1.3-0.7l-6.6-8.7h0v7.8c0,1-0.7,1.6-1.6,1.6c-0.9,0-1.6-0.6-1.6-1.6V38.9z"/>
	<path class="st0" d="M114.4,38.9c0-1,0.7-1.6,1.6-1.6c0.9,0,1.6,0.6,1.6,1.6v11.9c0,1-0.7,1.6-1.6,1.6c-0.9,0-1.6-0.6-1.6-1.6V38.9
		z"/>
	<path class="st0" d="M126.1,37.1c1.5,0,4.5,0.5,4.5,2.3c0,0.8-0.5,1.4-1.3,1.4c-0.9,0-1.4-0.7-3.2-0.7c-2.6,0-3.9,2.2-3.9,4.7
		c0,2.5,1.4,4.6,3.9,4.6c1.8,0,2.5-0.9,3.3-0.9c0.9,0,1.4,0.9,1.4,1.4c0,2-3.2,2.5-4.7,2.5c-4.2,0-7.2-3.4-7.2-7.7
		C118.9,40.5,121.8,37.1,126.1,37.1"/>
	<path class="st0" d="M132.3,38.9c0-1,0.7-1.6,1.6-1.6c0.9,0,1.6,0.6,1.6,1.6v11.9c0,1-0.7,1.6-1.6,1.6c-0.9,0-1.6-0.6-1.6-1.6V38.9
		z"/>
	<path class="st0" d="M137.3,39c0-1,0.6-1.6,1.6-1.6h3.7c3.1,0,5.4,2,5.4,5c0,3.1-2.4,5-5.2,5h-2.3v3.4c0,1-0.7,1.6-1.6,1.6
		c-0.9,0-1.6-0.6-1.6-1.6V39z M140.4,44.6h2.1c1.3,0,2.2-1,2.2-2.2c0-1.3-0.8-2.2-2.2-2.2h-2.1V44.6z"/>
	<path class="st0" d="M148.9,38.9c0-1,0.7-1.6,1.6-1.6c0.9,0,1.6,0.6,1.6,1.6v11.9c0,1-0.7,1.6-1.6,1.6c-0.9,0-1.6-0.6-1.6-1.6V38.9
		z"/>
	<path class="st0" d="M153.3,44.8c0-4.4,2.9-7.7,7.2-7.7c4.2,0,7.2,3.5,7.2,7.7c0,4.3-2.9,7.7-7.2,7.7
		C156.3,52.5,153.3,49.2,153.3,44.8 M164.5,44.8c0-2.5-1.3-4.8-3.9-4.8c-2.6,0-3.9,2.3-3.9,4.8c0,2.6,1.3,4.8,3.9,4.8
		C163.2,49.6,164.5,47.4,164.5,44.8"/>
	<path class="st0" d="M67.6,59.1c0-1,0.7-1.6,1.6-1.6h3.5c4.7,0,7.4,3,7.4,7.7c0,4.4-2.8,7.2-7.2,7.2h-3.6c-0.7,0-1.7-0.4-1.7-1.6
		V59.1z M70.7,69.5h2.1c2.7,0,3.9-2,3.9-4.5c0-2.7-1.3-4.6-4.1-4.6h-1.9V69.5z"/>
	<path class="st0" d="M82,59.3c0-1,0.5-1.8,1.6-1.8h5.2c1,0,1.5,0.7,1.5,1.4c0,0.7-0.5,1.4-1.5,1.4h-3.7v3.1h3.4
		c1,0,1.5,0.7,1.5,1.4c0,0.7-0.5,1.4-1.5,1.4h-3.4v3.2h3.9c1,0,1.5,0.7,1.5,1.4c0,0.7-0.5,1.4-1.5,1.4h-5.4c-0.9,0-1.6-0.6-1.6-1.6
		V59.3z"/>
	<path class="st0" d="M98.4,58.9c0-1,0.7-1.6,1.6-1.6c0.9,0,1.6,0.6,1.6,1.6v10.5h3.7c1.1,0,1.5,0.8,1.5,1.5c0,0.7-0.6,1.4-1.5,1.4
		H100c-1,0-1.6-0.7-1.6-1.7V58.9z"/>
	<path class="st0" d="M107.2,64.9c0-4.4,2.9-7.7,7.2-7.7c4.2,0,7.2,3.5,7.2,7.7c0,4.3-2.9,7.7-7.2,7.7
		C110.2,72.6,107.2,69.2,107.2,64.9 M118.4,64.9c0-2.5-1.3-4.8-3.9-4.8c-2.6,0-3.9,2.3-3.9,4.8c0,2.6,1.3,4.8,3.9,4.8
		C117.1,69.7,118.4,67.4,118.4,64.9"/>
	<path class="st0" d="M123.5,59c0-1,0.7-1.6,1.7-1.6h4c2.2,0,3.9,1.5,3.9,3.7c0,1.5-0.6,2.4-1.9,3.1v0c1.8,0.3,3.2,1.7,3.2,3.6
		c0,3-2,4.5-4.9,4.5h-4.3c-1,0-1.7-0.6-1.7-1.6V59z M126.6,63.3h1.6c1,0,1.7-0.6,1.7-1.7c0-1-0.8-1.5-1.7-1.5h-1.6V63.3z
		 M126.6,69.6h2.5c1.1,0,2-0.6,2-1.8c0-1-0.8-1.7-2.2-1.7h-2.2V69.6z"/>
	<path class="st0" d="M135.4,64.9c0-4.4,2.9-7.7,7.2-7.7c4.2,0,7.2,3.5,7.2,7.7c0,4.3-2.9,7.7-7.2,7.7
		C138.4,72.6,135.4,69.2,135.4,64.9 M146.5,64.9c0-2.5-1.3-4.8-3.9-4.8c-2.6,0-3.9,2.3-3.9,4.8c0,2.6,1.3,4.8,3.9,4.8
		C145.3,69.7,146.5,67.4,146.5,64.9"/>
	<path class="st0" d="M160.4,59.3c0,0.8-0.5,1.5-1.4,1.5c-0.9,0-1.5-0.6-2.8-0.6c-0.9,0-1.7,0.5-1.7,1.4c0,2.2,7,0.8,7,6.2
		c0,3-2.5,4.9-5.4,4.9c-1.6,0-5.1-0.4-5.1-2.3c0-0.8,0.5-1.5,1.4-1.5c1,0,2.2,0.8,3.5,0.8c1.4,0,2.1-0.8,2.1-1.8c0-2.5-7-1-7-5.8
		c0-2.9,2.4-4.8,5.2-4.8C157.5,57.2,160.4,57.6,160.4,59.3"/>
	<path class="st0" d="M57.1,17.4l-0.5,0l0.7,8.1c0.2,0,0.3,0,0.5,0L57.1,17.4z"/>
	<path class="st0" d="M53.7,17.8l-0.5,0.1l1.4,8c0.2,0,0.3-0.1,0.5-0.1L53.7,17.8z"/>
	<path class="st0" d="M50.4,18.5l-0.5,0.1l2.2,7.9c0.2,0,0.3-0.1,0.5-0.1L50.4,18.5z"/>
	<path class="st0" d="M44.3,20.7l-0.5,0.2l3.5,7.4c0.2-0.1,0.3-0.2,0.5-0.2L44.3,20.7z"/>
	<path class="st0" d="M41.4,22.2l-0.5,0.3l4.1,7.1c0.2-0.1,0.3-0.2,0.5-0.3L41.4,22.2z"/>
	<path class="st0" d="M38.6,23.9l-0.4,0.3l4.7,6.7c0.1-0.1,0.3-0.2,0.4-0.3L38.6,23.9z"/>
	<path class="st0" d="M33.5,28.1l-0.4,0.4l5.8,5.8c0.1-0.1,0.2-0.3,0.4-0.4L33.5,28.1z"/>
	<path class="st0" d="M31.2,30.7l-0.3,0.4l6.4,5.3c0.1-0.1,0.2-0.3,0.3-0.4L31.2,30.7z"/>
	<path class="st0" d="M29.2,33.2l-0.3,0.4l6.8,4.7c0.1-0.1,0.2-0.3,0.3-0.4L29.2,33.2z"/>
	<path class="st0" d="M25.9,38.9l-0.2,0.5l7.5,3.5c0.1-0.2,0.1-0.3,0.2-0.5L25.9,38.9z"/>
	<path class="st0" d="M24.6,42l-0.2,0.5l7.8,2.8c0.1-0.2,0.1-0.3,0.2-0.5L24.6,42z"/>
	<path class="st0" d="M23.6,45.1l-0.1,0.5l8,2.1c0-0.2,0.1-0.3,0.1-0.5L23.6,45.1z"/>
	<path class="st0" d="M22.4,51.5l0,0.5l8.3,0.7c0-0.2,0-0.4,0-0.5L22.4,51.5z"/>
	<path class="st0" d="M30.6,54.7l-8.3,0v0.5l8.3,0c0-0.1,0-0.1,0-0.2C30.6,55,30.6,54.9,30.6,54.7"/>
	<path class="st0" d="M22.4,58.1l0,0.5l8.3-0.8c0-0.2,0-0.3,0-0.5L22.4,58.1z"/>
	<path class="st0" d="M23.5,64.7l0.1,0.5l8-2.2c0-0.2-0.1-0.3-0.1-0.5L23.5,64.7z"/>
	<path class="st0" d="M24.5,67.8l0.2,0.5l7.8-2.9c-0.1-0.2-0.1-0.3-0.2-0.5L24.5,67.8z"/>
	<path class="st0" d="M25.7,70.9l0.2,0.5l7.5-3.5c-0.1-0.2-0.2-0.3-0.2-0.5L25.7,70.9z"/>
	<path class="st0" d="M29,76.6l0.3,0.4l6.8-4.8c-0.1-0.1-0.2-0.3-0.3-0.4L29,76.6z"/>
	<path class="st0" d="M31,79.2l0.3,0.4l6.3-5.3c-0.1-0.1-0.2-0.3-0.3-0.4L31,79.2z"/>
	<path class="st0" d="M33.2,81.7l0.4,0.4l5.8-5.9c-0.1-0.1-0.2-0.2-0.4-0.4L33.2,81.7z"/>
	<path class="st0" d="M38.3,86l0.4,0.3l4.7-6.8c-0.1-0.1-0.3-0.2-0.4-0.3L38.3,86z"/>
	<path class="st0" d="M41,87.8l0.5,0.3l4.1-7.1c-0.2-0.1-0.3-0.2-0.5-0.3L41,87.8z"/>
	<path class="st0" d="M44,89.3l0.5,0.2l3.4-7.5c-0.2-0.1-0.3-0.1-0.5-0.2L44,89.3z"/>
	<path class="st0" d="M50.1,91.6l0.5,0.1l2.1-7.9c-0.2,0-0.3-0.1-0.5-0.1L50.1,91.6z"/>
	<path class="st0" d="M53.3,92.3l0.5,0.1l1.4-8.1c-0.2,0-0.3-0.1-0.5-0.1L53.3,92.3z"/>
	<path class="st0" d="M56.4,92.7l0.5,0l0.7-8.1c-0.2,0-0.4,0-0.5,0L56.4,92.7z"/>
	<path class="st0" d="M47.2,19.5l2.2,7.9c0.4-0.2,0.8-0.3,1.2-0.4L47.2,19.5z"/>
	<path class="st0" d="M60.1,17.1l-0.5,8.3c0.4,0,0.2,0,0.6,0L60.1,17.1z"/>
	<path class="st0" d="M60.1,92.9l0-8.1c-0.4,0-0.3,0-0.7,0L60.1,92.9z"/>
	<path class="st0" d="M35.7,26.2l4.8,6.7c0.3-0.3,0.6-0.5,0.9-0.8L35.7,26.2z"/>
	<path class="st0" d="M27.3,36.2l6.8,4.7c0.2-0.4,0.4-0.7,0.6-1.1L27.3,36.2z"/>
	<path class="st0" d="M22.8,48.6l8,2.1c0.1-0.4,0.1-0.8,0.2-1.2L22.8,48.6z"/>
	<path class="st0" d="M22.9,61.7l8.3-0.8c-0.1-0.4-0.2-0.8-0.2-1.2L22.9,61.7z"/>
	<path class="st0" d="M27.4,74.1l7.5-3.6c-0.2-0.4-0.4-0.7-0.6-1.1L27.4,74.1z"/>
	<path class="st0" d="M35.8,84.1l5.8-5.9c-0.3-0.3-0.6-0.5-1-0.8L35.8,84.1z"/>
	<path class="st0" d="M47.2,90.6l3.4-7.5c-0.4-0.1-0.8-0.3-1.2-0.4L47.2,90.6z"/>
	<path class="st0" d="M56.1,39.1c0-0.5-0.1-1.3-0.6-1.8c-0.8-0.8-0.7-2.1-0.1-2.6c1.1-1.2,0-2.4-0.1-2.6c0.5-0.1,1.7,0.4,1.6,1.6
		c-0.2,0.9-0.1,1.9,0.6,2.5c0.7,0.6,0.8,1.7,0.7,2.4c0.1,0,0.1,0,0.2,0l1.1-13.2c-0.6,0-1.2,0-1.8,0.1l0.3,3.5l-0.5,0l-0.3-3.5
		c-0.7,0.1-1.4,0.2-2.1,0.3l0.6,3.5l-0.5,0.1l-0.6-3.5c-0.7,0.1-1.4,0.3-2.1,0.5l0.9,3.4L53,29.9l-0.9-3.4c-0.5,0.1-1,0.3-1.5,0.5
		L56,39.1C56,39.1,56.1,39.1,56.1,39.1"/>
	<path class="st0" d="M46.7,45.5c-0.3-0.5-0.9-1.2-1.8-1.3c-1.1-0.1-1.9-1.1-1.8-2c0.1-1.7-1.6-1.8-1.7-1.9c0.3-0.4,1.5-0.8,2.2,0.2
		c0.4,0.8,1.2,1.5,2.1,1.5c1.1,0,2,1.1,2.4,1.8c0-0.1,0.1-0.1,0.1-0.2l-7.7-10.8c-0.4,0.3-0.8,0.7-1.1,1.1l2.4,2.4l-0.4,0.4L39,34.3
		c-0.5,0.5-1,1.1-1.5,1.6l2.6,2.2l-0.3,0.4l-2.6-2.2c-0.4,0.5-0.8,1-1.2,1.6l2.8,2l-0.3,0.4l-2.8-2c-0.3,0.5-0.6,1-0.9,1.5
		L46.7,45.5C46.7,45.5,46.7,45.5,46.7,45.5"/>
	<path class="st0" d="M50.8,41.5c-0.1-0.6-0.5-1.3-1.2-1.6c-1-0.4-1.4-1.7-1-2.4c0.7-1.5-0.8-2.3-1-2.4c0.5-0.2,1.7-0.2,2,0.9
		c0.1,0.9,0.6,1.8,1.4,2.1c1,0.3,1.4,1.5,1.6,2.3c0.1,0,0.1-0.1,0.2-0.1l-3.5-12.8c-0.5,0.2-1.1,0.4-1.6,0.7l1.5,3.2l-0.5,0.2
		l-1.5-3.2c-0.6,0.3-1.2,0.6-1.8,1l1.7,3l-0.5,0.3l-1.7-3c-0.6,0.3-1.2,0.7-1.7,1.1l2,2.8l-0.4,0.3l-2-2.8c-0.5,0.4-1,0.7-1.4,1.1
		l9.2,9.5C50.7,41.5,50.8,41.5,50.8,41.5"/>
	<path class="st0" d="M48.3,66.5c-0.6,0.2-1.4,0.7-1.5,1.6c-0.2,1.1-1.3,1.7-2.2,1.5c-1.6-0.3-2,1.3-2.2,1.5
		c-0.3-0.4-0.6-1.6,0.5-2.2c0.8-0.3,1.7-1,1.8-1.9c0.1-1.2,1.5-1.9,2.3-2.2c0-0.1-0.1-0.1-0.1-0.1l-11.9,5.7
		c0.3,0.5,0.6,0.9,0.9,1.4l2.8-2l0.3,0.4l-2.8,2c0.4,0.6,0.8,1.1,1.2,1.6l2.6-2.2l0.3,0.4l-2.6,2.2c0.4,0.5,0.9,1,1.4,1.5l2.4-2.4
		l0.4,0.4l-2.4,2.4c0.4,0.4,0.8,0.8,1.2,1.2L48.3,66.5C48.3,66.6,48.3,66.6,48.3,66.5"/>
	<path class="st0" d="M45.1,61.8c-0.6,0-1.6,0.1-2.2,1c-0.6,0.9-1.9,1.1-2.6,0.6c-1.4-0.9-2.4,0.5-2.5,0.6c-0.2-0.5,0-1.7,1.2-1.9
		c0.9,0,1.9-0.4,2.3-1.1c0.6-1.1,2.3-1.3,3-1.2c0-0.1,0-0.1,0-0.2l-13.2,1.3c0.1,0.6,0.2,1.1,0.4,1.7l3.3-0.9l0.1,0.5l-3.3,0.9
		c0.2,0.6,0.4,1.3,0.6,1.9l3.2-1.2l0.2,0.5l-3.2,1.2c0.2,0.6,0.5,1.3,0.8,1.9l3.1-1.5l0.2,0.5l-3.1,1.5c0.3,0.5,0.5,1.1,0.8,1.6
		l10.9-7.5C45.1,61.9,45.1,61.8,45.1,61.8"/>
	<path class="st0" d="M43.7,56.3c-0.5-0.2-1.6-0.5-2.4,0.1c-0.9,0.7-2.1,0.4-2.6-0.3c-1-1.3-2.4-0.4-2.6-0.3c0-0.5,0.6-1.6,1.8-1.3
		c0.8,0.3,1.9,0.3,2.6-0.2c1-0.9,2.6-0.4,3.2-0.1c0-0.1,0-0.1,0-0.2l-12.8-3.3c-0.1,0.5-0.1,1.1-0.2,1.6l3.4,0.3l0,0.5l-3.4-0.3
		c-0.1,0.7-0.1,1.3-0.1,2l3.4,0v0.5l-3.4,0c0,0.7,0,1.4,0.1,2.1l3.4-0.3l0,0.5l-3.4,0.3c0.1,0.6,0.1,1.2,0.2,1.7L43.7,56.3
		C43.7,56.4,43.7,56.3,43.7,56.3"/>
	<path class="st0" d="M52.8,69.9c-0.4,0.4-0.8,1.1-0.7,1.9c0.2,1.1-0.7,2.1-1.5,2.2c-1.6,0.3-1.4,1.9-1.5,2.1
		c-0.5-0.2-1.1-1.3-0.3-2.2c0.7-0.6,1.2-1.5,1-2.4c-0.3-1.1,0.6-2.2,1.2-2.7c0,0-0.1-0.1-0.1-0.1l-9.2,9.5c0.4,0.4,0.9,0.7,1.3,1
		l2-2.8l0.4,0.3l-2,2.8c0.6,0.4,1.1,0.8,1.7,1.1l1.7-3l0.5,0.3l-1.7,3c0.6,0.3,1.2,0.7,1.8,1l1.5-3.2l0.5,0.2l-1.5,3.2
		c0.5,0.2,1,0.5,1.6,0.7L53,70C52.9,69.9,52.9,69.9,52.8,69.9"/>
	<path class="st0" d="M59.4,84.7l-0.8-13.1c-0.1,0-0.2,0-0.3,0c-0.2,0.5-0.3,1.2,0.1,1.8c0.5,1,0.1,2.2-0.7,2.6
		c-1.4,0.8-0.7,2.3-0.7,2.5c-0.5-0.1-1.5-0.8-1.1-2c0.4-0.8,0.6-1.8,0.1-2.6c-0.6-0.8-0.3-2,0.1-2.7c-0.1,0-0.1,0-0.2,0l-5.5,12.1
		c0.5,0.2,1.1,0.4,1.6,0.5l0.9-3.4l0.5,0.1l-0.9,3.4c0.7,0.2,1.3,0.3,2,0.4l0.6-3.5l0.5,0.1l-0.6,3.5c0.6,0.1,1.3,0.2,1.9,0.3
		l0.3-3.5l0.5,0l-0.3,3.5C58.3,84.7,58.7,84.7,59.4,84.7"/>
	<path class="st0" d="M44.3,50.6c-0.4-0.4-1.3-1-2.2-0.7c-1.1,0.3-2.1-0.4-2.3-1.2c-0.5-1.6-2.1-1.2-2.3-1.2
		c0.2-0.5,1.1-1.3,2.2-0.6c0.7,0.6,1.7,1,2.5,0.7c1.1-0.4,2.4,0.5,3,1c0-0.1,0-0.1,0.1-0.2l-10.9-7.5c-0.3,0.5-0.5,1-0.8,1.5
		l3.1,1.4l-0.2,0.5l-3.1-1.4c-0.3,0.6-0.5,1.2-0.8,1.9l3.2,1.2l-0.2,0.5l-3.2-1.2c-0.2,0.6-0.4,1.3-0.6,1.9l3.3,0.9l-0.1,0.5
		l-3.3-0.9c-0.1,0.6-0.3,1.1-0.4,1.7L44.3,50.6C44.3,50.7,44.3,50.7,44.3,50.6"/>
	<path class="st0" d="M58.3,63.6l-0.5-0.3c-0.1-0.1-0.1-0.1-0.3,0c-0.1,0-0.2,0.1-0.3,0.1c-0.2,0-0.3-0.1-0.2-0.3
		c0.1-0.2,0.3-0.3,0.4-0.4c0.3-0.7,0.8-1.5,0.7-2c-0.4-1.2-0.1-2.4,0-3.5c0-0.2,0.4-0.4,0.5-0.6c0.1,0,0.1-0.1,0.2,0
		c0.2,0,0.3,0.2,0.5,0.4c0.1,0.1,0.7,0.7,0.8,0.7v-2.3c-0.1,0-0.8-0.7-0.9-0.8c-0.1-0.1-0.2-0.3-0.3-0.4c-0.2-0.3-0.3-0.6-0.5-0.8
		c-0.1-0.1-0.2-0.1-0.3-0.1c-0.2,0-0.4,0-0.5-0.2c-0.1-0.2-0.1-0.4-0.2-0.6c-0.2-0.3-0.3-0.7-0.6-1c-0.2-0.2-0.5-0.4-0.9-0.4
		c-0.1,0-0.1-0.2-0.1-0.3c0-0.2-0.1-0.2-0.2-0.2c-0.3,0-0.5,0-0.8,0c-0.2,0-0.4,0-0.6,0c-0.2,0-0.3-0.1-0.2-0.3
		c0.1-0.1,0.1-0.2,0.2-0.3c0-0.1,0.1-0.1,0-0.2c0-0.1-0.1-0.1-0.2-0.1h-1.8H51c-0.1,0-0.4,0-0.5,0c-0.1-0.1-0.1-0.2,0-0.3
		c0.2-0.1,0.4-0.2,0.6-0.2c0.3-0.1,0.6-0.2,0.9-0.4c0.1,0,0.1-0.1,0.1-0.2c0-0.1-0.2-0.1-0.2-0.1c-0.2,0-0.3-0.1-0.5-0.1
		c-0.2,0-0.4-0.1-0.6-0.2c-0.2,0-0.4-0.2-0.2-0.4c0.1-0.2,0.3-0.3,0.5-0.4c0.4-0.2,0.8-0.2,1.1-0.2c0.3,0,0.5,0,0.8-0.1
		c0.1,0,0.2-0.1,0.3-0.2c0-0.1-0.1-0.1-0.2-0.1c-0.1,0-0.3,0-0.4,0c-0.4,0-0.9-0.1-1.3-0.1c-0.1,0-0.4,0-0.5-0.1c0,0,0-0.2,0-0.2
		c0,0,0.1,0,0.2-0.1c0.2-0.1,0.4-0.1,0.6-0.2c0.2-0.1,0.4-0.1,0.6-0.2c0.1,0,0.7-0.1,0.5-0.3c0-0.1-0.2,0-0.2,0c-0.2,0-0.4,0-0.6,0
		c-0.3,0-0.5,0-0.8,0c-0.1,0-0.5,0-0.4-0.1c0-0.1,0.2-0.2,0.2-0.2c0.1-0.1,0.2-0.1,0.3-0.2c0.4-0.2,0.8-0.3,1.2-0.4
		c0.3-0.1,0.7-0.1,1-0.2c0.1,0,0.3-0.1,0.3-0.2c0-0.1-0.1-0.2-0.2-0.1c-0.2,0-0.3,0.1-0.5,0.1c-0.5,0.1-1.1,0.2-1.6,0.3
		c-0.3,0-0.5,0.1-0.8,0.1c-0.1,0-0.2,0.1-0.3,0c-0.1,0-0.2-0.1-0.1-0.2c0.1-0.1,0.2-0.1,0.2-0.2c0.1-0.1,0.1-0.1,0.2-0.2
		c0.3-0.3,0.5-0.6,0.8-0.8c0.2-0.2,0.5-0.4,0.8-0.5c0.2-0.1,0.3-0.1,0.5-0.1c0.1,0,0.3,0,0.4,0c0.1,0,0.3,0.1,0.3-0.1
		c0-0.1-0.1-0.1-0.2-0.1c-0.1,0-0.2,0-0.3,0c-0.2,0-0.4-0.1-0.7,0c-0.2,0-0.4,0.1-0.7,0.2c-0.1,0-0.4,0.2-0.4,0
		c0-0.1,0.1-0.2,0.2-0.3c0.1-0.1,0.2-0.2,0.2-0.3c0.3-0.3,0.7-0.5,1.1-0.7c0.5-0.2,1-0.3,1.6-0.4c0.2,0,0.4,0,0.6-0.1
		c0.1,0,0.2-0.1,0-0.2c-0.2-0.1-0.4-0.1-0.6-0.1c-0.2,0-0.4-0.1-0.6-0.1c-0.1,0-0.3,0-0.4-0.1c-0.1,0-0.2-0.2-0.1-0.2
		c0.6-0.1,1-0.3,1.6-0.5c0.2-0.1,0.5-0.2,0.7-0.2c0.1,0,0.3,0,0.4,0c0.1,0,0.3-0.2,0.3-0.3c0.1-0.1,0.2-0.2,0.1-0.3
		c-0.1,0-0.3,0-0.4,0c-0.2,0-0.4,0-0.6,0.1c-0.7,0.1-1.4,0.3-2,0.5c0,0,0,0-0.1,0c-5.8,2.6-9.9,8.4-9.9,15.2c0,8,5.7,14.6,13.1,16.2
		c0,0,0-0.2,0-0.2c0-0.3,0.1-0.3,0.3-0.3c0.2,0,0.3,0,0.5,0.2c0.2,0.1,0.5,0.3,0.8,0.3c0.2,0,0.5-0.1,0.6-0.3
		c0.1-0.1,0.2-0.3,0.3-0.5c0-0.1-0.2-0.4-0.4-0.5c-0.4-0.1-0.8-0.1-1.2-0.3C57,69.4,56.7,69,57,68.7c0.1-0.1,0.3-0.2,0.4-0.2
		c0.3,0,0.7-0.1,1-0.1c0.2,0,0.4,0,0.5,0.1c0.1,0.1,0.2,0.3,0.2,0.5c0.1,0.4,0.1,2.2,0.1,2.3c0,0,0,0.1,0,0.1c0.1,0,0.8,0,0.9,0
		v-6.9C59.7,64.4,58.7,63.8,58.3,63.6 M54.2,53.4c-1.4-0.1-2.7-0.2-4.1-0.2C51,51.6,53.2,51.7,54.2,53.4 M51.4,54.2
		c1-0.2,2.2-0.4,3.1,0.8c-2,0.4-3.8,0.7-5.7,1C49.1,54.5,50.4,54.4,51.4,54.2 M56.1,62.6c-0.1,0.2-0.2,0.5-0.2,0.7
		c-0.2,0.5-0.3,1-0.6,1.4c-0.3,0.5-2.5,0.3-2.9-0.3c-0.1-0.1,0.1-0.4,0.2-0.6c0.4-0.6,0.5-1.3,0-1.9c-0.5-0.5-1-1.1-1.7-1.4
		c-0.2-0.1-0.5-0.3-0.6-0.5c-0.3-0.3-0.5-0.7-0.7-1c-0.1-0.2-0.2-0.4-0.3-0.6c0-0.1-0.1-0.2-0.1-0.3c0-0.1,0-0.2,0.1-0.3
		c0.1-0.1,0.2-0.1,0.3-0.1c0.3,0,0.6-0.1,0.9-0.1c0.3,0,0.6,0,0.8,0.2c1.2,0.9,1.3,0.9,2.4,0c0.2-0.2,0.7-0.4,0.9-0.1
		c0.1,0.2,0.1,0.5,0.1,0.7c0,0.1-0.1,0.6,0.1,0.7c0.3,0.1,0.6,0.4,0.8,0.7c0.1,0.3,0.2,0.7,0.2,1c0,0.3,0.1,0.5,0.2,0.8
		c0,0.1,0,0.1,0.1,0.2c0,0.1,0.1,0.1,0.1,0.2c0.1,0.1,0.1,0.2,0.1,0.3C56.2,62.5,56.1,62.5,56.1,62.6 M58.9,66.4
		c0,0.1-0.4,0.3-0.5,0.3c-0.4,0-0.7-0.1-1.1-0.1c-0.1,0-0.3,0-0.4-0.1c0-0.1,0.1-0.2,0.2-0.3c0.2-0.2,0.5-0.3,0.8-0.4
		c0.2-0.1,0.5-0.2,0.7-0.3c0.1,0,0.2,0,0.2,0c0.1,0.1,0.1,0.2,0.1,0.3C58.9,66,58.9,66.2,58.9,66.4"/>
</g>
</svg>
